<svg width="18" height="26" viewBox="0 0 18 26" fill="none" xmlns="http://www.w3.org/2000/svg">
<path d="M14.2387 1.54736H3.79396C2.51208 1.54736 1.4729 2.4636 1.4729 3.59384V23.0354C1.4729 24.1656 2.51208 25.0819 3.79396 25.0819H14.2387C15.5206 25.0819 16.5598 24.1656 16.5598 23.0354V3.59384C16.5598 2.4636 15.5206 1.54736 14.2387 1.54736Z" stroke="#A0A3BD" stroke-width="1.6" stroke-linecap="round" stroke-linejoin="round"/>
<path d="M12.818 1.54736V2.88813C12.818 3.24373 12.6578 3.58476 12.3727 3.8362C12.0875 4.08764 11.7007 4.2289 11.2974 4.2289H6.73539C6.33208 4.2289 5.94529 4.08764 5.66011 3.8362C5.37493 3.58476 5.21472 3.24373 5.21472 2.88813V1.54736" stroke="#A0A3BD" stroke-width="1.6" stroke-linecap="round" stroke-linejoin="round"/>
</svg>
