<svg width="18" height="28" viewBox="0 0 18 28" fill="none" xmlns="http://www.w3.org/2000/svg">
<path d="M16.6517 27.0821V5.67988C16.6516 5.45053 16.5697 5.227 16.4177 5.04091C16.2656 4.85483 16.051 4.7156 15.8043 4.64291L3.41552 1.00185C3.22924 0.946808 3.03077 0.93167 2.83654 0.95769C2.6423 0.98371 2.45789 1.05014 2.29856 1.15148C2.13922 1.25282 2.00955 1.38616 1.92027 1.54047C1.831 1.69477 1.78468 1.8656 1.78516 2.03882V27.0821" stroke="#A0A3BD" stroke-width="1.6" stroke-linecap="round" stroke-linejoin="round"/>
<path d="M11.6945 20.1847V21.277" stroke="#A0A3BD" stroke-width="1.6" stroke-linecap="round" stroke-linejoin="round"/>
<path d="M11.6945 14.7231V15.8155" stroke="#A0A3BD" stroke-width="1.6" stroke-linecap="round" stroke-linejoin="round"/>
<path d="M11.6945 9.26147V10.3538" stroke="#A0A3BD" stroke-width="1.6" stroke-linecap="round" stroke-linejoin="round"/>
<path d="M6.74182 20.1847V21.277" stroke="#A0A3BD" stroke-width="1.6" stroke-linecap="round" stroke-linejoin="round"/>
<path d="M6.74182 14.7231V15.8155" stroke="#A0A3BD" stroke-width="1.6" stroke-linecap="round" stroke-linejoin="round"/>
<path d="M6.74182 9.26147V10.3538" stroke="#A0A3BD" stroke-width="1.6" stroke-linecap="round" stroke-linejoin="round"/>
</svg>
